<svg width="34" height="13" viewBox="0 0 34 13" fill="none" xmlns="http://www.w3.org/2000/svg">
<path d="M4.08398 8.24805C4.08398 8.04102 3.98047 7.87891 3.77344 7.76172C3.57031 7.64062 3.24219 7.5332 2.78906 7.43945C1.28125 7.12305 0.527344 6.48242 0.527344 5.51758C0.527344 4.95508 0.759766 4.48633 1.22461 4.11133C1.69336 3.73242 2.30469 3.54297 3.05859 3.54297C3.86328 3.54297 4.50586 3.73242 4.98633 4.11133C5.4707 4.49023 5.71289 4.98242 5.71289 5.58789H4.01953C4.01953 5.3457 3.94141 5.14648 3.78516 4.99023C3.62891 4.83008 3.38477 4.75 3.05273 4.75C2.76758 4.75 2.54688 4.81445 2.39062 4.94336C2.23438 5.07227 2.15625 5.23633 2.15625 5.43555C2.15625 5.62305 2.24414 5.77539 2.41992 5.89258C2.59961 6.00586 2.90039 6.10547 3.32227 6.19141C3.74414 6.27344 4.09961 6.36719 4.38867 6.47266C5.2832 6.80078 5.73047 7.36914 5.73047 8.17773C5.73047 8.75586 5.48242 9.22461 4.98633 9.58398C4.49023 9.93945 3.84961 10.1172 3.06445 10.1172C2.5332 10.1172 2.06055 10.0234 1.64648 9.83594C1.23633 9.64453 0.914062 9.38477 0.679688 9.05664C0.445312 8.72461 0.328125 8.36719 0.328125 7.98438H1.93359C1.94922 8.28516 2.06055 8.51562 2.26758 8.67578C2.47461 8.83594 2.75195 8.91602 3.09961 8.91602C3.42383 8.91602 3.66797 8.85547 3.83203 8.73438C4 8.60938 4.08398 8.44727 4.08398 8.24805ZM9.74414 10.1172C8.81445 10.1172 8.05664 9.83203 7.4707 9.26172C6.88867 8.69141 6.59766 7.93164 6.59766 6.98242V6.81836C6.59766 6.18164 6.7207 5.61328 6.9668 5.11328C7.21289 4.60938 7.56055 4.22266 8.00977 3.95312C8.46289 3.67969 8.97852 3.54297 9.55664 3.54297C10.4238 3.54297 11.1055 3.81641 11.6016 4.36328C12.1016 4.91016 12.3516 5.68555 12.3516 6.68945V7.38086H8.31445C8.36914 7.79492 8.5332 8.12695 8.80664 8.37695C9.08398 8.62695 9.43359 8.75195 9.85547 8.75195C10.5078 8.75195 11.0176 8.51562 11.3848 8.04297L12.2168 8.97461C11.9629 9.33398 11.6191 9.61523 11.1855 9.81836C10.752 10.0176 10.2715 10.1172 9.74414 10.1172ZM9.55078 4.91406C9.21484 4.91406 8.94141 5.02734 8.73047 5.25391C8.52344 5.48047 8.39062 5.80469 8.33203 6.22656H10.6875V6.0918C10.6797 5.7168 10.5781 5.42773 10.3828 5.22461C10.1875 5.01758 9.91016 4.91406 9.55078 4.91406ZM15.9551 8.75195C16.2676 8.75195 16.5215 8.66602 16.7168 8.49414C16.9121 8.32227 17.0137 8.09375 17.0215 7.80859H18.6094C18.6055 8.23828 18.4883 8.63281 18.2578 8.99219C18.0273 9.34766 17.7109 9.625 17.3086 9.82422C16.9102 10.0195 16.4688 10.1172 15.9844 10.1172C15.0781 10.1172 14.3633 9.83008 13.8398 9.25586C13.3164 8.67773 13.0547 7.88086 13.0547 6.86523V6.75391C13.0547 5.77734 13.3145 4.99805 13.834 4.41602C14.3535 3.83398 15.0664 3.54297 15.9727 3.54297C16.7656 3.54297 17.4004 3.76953 17.877 4.22266C18.3574 4.67188 18.6016 5.27148 18.6094 6.02148H17.0215C17.0137 5.69336 16.9121 5.42773 16.7168 5.22461C16.5215 5.01758 16.2637 4.91406 15.9434 4.91406C15.5488 4.91406 15.25 5.05859 15.0469 5.34766C14.8477 5.63281 14.748 6.09766 14.748 6.74219V6.91797C14.748 7.57031 14.8477 8.03906 15.0469 8.32422C15.2461 8.60938 15.5488 8.75195 15.9551 8.75195ZM20.0391 10V4.90234H19.0957V3.66016H20.0391V3.12109C20.0391 2.41016 20.2422 1.85938 20.6484 1.46875C21.0586 1.07422 21.6309 0.876953 22.3652 0.876953C22.5996 0.876953 22.8867 0.916016 23.2266 0.994141L23.209 2.30664C23.0684 2.27148 22.8965 2.25391 22.6934 2.25391C22.0566 2.25391 21.7383 2.55273 21.7383 3.15039V3.66016H22.998V4.90234H21.7383V10H20.0391ZM24.3398 10V4.90234H23.3965V3.66016H24.3398V3.12109C24.3398 2.41016 24.543 1.85938 24.9492 1.46875C25.3594 1.07422 25.9316 0.876953 26.666 0.876953C26.9004 0.876953 27.1875 0.916016 27.5273 0.994141L27.5098 2.30664C27.3691 2.27148 27.1973 2.25391 26.9941 2.25391C26.3574 2.25391 26.0391 2.55273 26.0391 3.15039V3.66016H27.2988V4.90234H26.0391V10H24.3398ZM30.5449 7.60352L31.7168 3.66016H33.5332L30.9844 10.9844L30.8438 11.3184C30.4648 12.1465 29.8398 12.5605 28.9688 12.5605C28.7227 12.5605 28.4727 12.5234 28.2188 12.4492V11.166L28.4766 11.1719C28.7969 11.1719 29.0352 11.123 29.1914 11.0254C29.3516 10.9277 29.4766 10.7656 29.5664 10.5391L29.7656 10.0176L27.5449 3.66016H29.3672L30.5449 7.60352Z" fill="#E1E1E6"/>
</svg>
