<svg width="777" height="521" viewBox="0 0 777 521" fill="none" xmlns="http://www.w3.org/2000/svg">
<path d="M529.389 506.937L543.474 506.937L550.176 453.719L529.386 453.72L529.389 506.937Z" fill="#FFB8B8"/>
<path d="M525.796 502.433L553.536 502.432H553.537C558.225 502.432 562.722 504.256 566.037 507.504C569.352 510.751 571.215 515.155 571.215 519.747V520.31L525.796 520.312L525.796 502.433Z" fill="#2F2E41"/>
<path d="M576.75 506.937L590.835 506.937L597.537 453.719L576.747 453.72L576.75 506.937Z" fill="#FFB8B8"/>
<path d="M573.157 502.433L600.897 502.432H600.898C605.587 502.432 610.083 504.256 613.398 507.504C616.714 510.751 618.576 515.155 618.577 519.747V520.31L573.157 520.312L573.157 502.433Z" fill="#2F2E41"/>
<path d="M551.528 320.049L554.907 488.884L527.574 487.223L508.611 379.685L502.622 306.362L551.528 320.049Z" fill="#2F2E41"/>
<path d="M598.438 291.698L602.268 491.56L570.391 490.668L563.505 371.864L551.528 328.848L502.622 306.363L510.607 252.593L582.469 251.616L598.438 291.698Z" fill="#2F2E41"/>
<path d="M543.479 112.793C556.979 112.793 567.923 102.073 567.923 88.85C567.923 75.6266 556.979 64.907 543.479 64.907C529.979 64.907 519.035 75.6266 519.035 88.85C519.035 102.073 529.979 112.793 543.479 112.793Z" fill="#FFB8B8"/>
<path d="M563.753 122.879L567.497 128.435L577.479 155.808L569.494 262.369L522.584 263.348L516.596 141.144L529.14 125.785L563.753 122.879Z" fill="#CCCCCC"/>
<path d="M497.632 144.077L489.647 143.099C489.647 143.099 487.651 144.077 486.653 150.92C485.655 157.764 473.678 218.376 473.678 218.376L489.647 292.676L507.613 269.213L496.634 228.153L507.613 187.093L497.632 144.077Z" fill="#2F2E41"/>
<path d="M599.436 143.1H605.424L620.396 222.287L606.423 283.877L592.449 261.392L596.441 236.952L594.446 215.444L587.459 202.734L599.436 143.1Z" fill="#2F2E41"/>
<path d="M557.923 88.85L553.478 87.7617C553.478 87.7617 550.145 69.2603 542.368 71.4369C534.59 73.6135 514.59 75.7902 514.59 67.0836C514.59 58.377 533.479 50.7588 544.59 51.8471C555.701 52.9355 569.891 56.5459 573.478 72.5252C579.228 98.1407 561.614 104.611 561.614 104.611L561.907 103.678C562.721 101.089 562.779 98.3276 562.075 95.7073C561.371 93.0869 559.933 90.7117 557.923 88.85V88.85Z" fill="#2F2E41"/>
<path d="M490.645 143.099L522.584 130.39L530.07 125.013L552.526 222.287L563.006 122.08L604.426 143.099L590.453 209.578L588.457 234.996L594.446 255.526C594.446 255.526 615.405 270.191 608.419 285.833C601.432 301.474 593.448 302.452 593.448 302.452C593.448 302.452 559.513 271.168 557.517 263.347C555.521 255.526 552.526 241.839 552.526 241.839C552.526 241.839 535.559 304.407 515.598 303.43C495.636 302.452 495.636 281.922 495.636 281.922L500.626 260.414L508.611 237.929L504.619 200.779L490.645 143.099Z" fill="#2F2E41"/>
<path d="M193.566 460.919C187.276 460.898 181.014 460.088 174.926 458.508L173.726 458.176L172.613 457.618C132.371 437.442 98.4211 410.791 71.7059 378.407C49.5914 351.442 32.3499 320.827 20.7568 287.937C6.89317 248.559 0.223417 207.01 1.06592 165.272C1.08292 164.396 1.0973 163.72 1.0973 163.254C1.0973 142.964 12.3593 125.162 29.7885 117.9C43.128 112.342 164.244 62.5948 172.995 59.0004C189.475 50.7427 207.057 57.6351 209.87 58.8403C216.181 61.4206 328.146 107.215 352.341 118.737C377.277 130.611 383.93 151.942 383.93 162.674C383.93 211.263 375.515 256.672 358.919 297.642C345.515 330.804 326.519 361.419 302.756 388.153C256.91 439.747 211.051 458.037 210.608 458.198C205.127 460.084 199.361 461.005 193.566 460.919ZM182.781 434.205C186.757 435.097 195.911 436.434 201.877 434.257C209.456 431.493 247.839 411.589 283.707 371.225C333.264 315.456 358.41 245.35 358.446 162.854C358.358 161.182 357.171 149.262 341.385 141.745C317.659 130.447 201.281 82.8601 200.108 82.3805L199.787 82.2442C197.348 81.2222 189.586 79.0695 184.236 81.8732L183.165 82.3726C181.868 82.9054 53.3017 135.71 39.59 141.423C29.9984 145.42 26.5809 155.321 26.5809 163.254C26.5809 163.833 26.5659 164.677 26.5447 165.767C25.4488 222.214 38.511 361.113 182.781 434.205Z" fill="#3F3D56"/>
<path d="M178.324 70.5861C178.324 70.5861 48.5894 123.87 34.6892 129.662C20.7891 135.453 13.839 149.353 13.839 163.254C13.839 177.154 3.41396 358.532 178.324 446.228C178.324 446.228 194.199 450.62 206.243 446.228C218.287 441.835 371.188 367.701 371.188 162.674C371.188 162.674 371.188 141.824 346.863 130.241C322.538 118.657 204.929 70.5861 204.929 70.5861C204.929 70.5861 190.486 64.2152 178.324 70.5861Z" fill="#EBA417"/>
<path opacity="0.1" d="M192.224 112.286V396.537C192.224 396.537 61.3312 333.53 62.4895 167.887L192.224 112.286Z" fill="black"/>
<path d="M193.931 316.581L152.235 262.969L176.483 244.11L196.226 269.494L262.921 199.088L285.224 220.219L193.931 316.581Z" fill="white"/>
</svg>
